<svg width="22" height="27" viewBox="0 0 24 29" fill="none" xmlns="http://www.w3.org/2000/svg">
<path d="M16.5947 0H4.02801C1.80701 0 0 1.75071 0 3.9025V25.0975C0 27.2493 1.80701 29 4.02801 29H19.9723C22.193 29 24 27.2496 24 25.0975V8.01891L16.5947 0ZM17.1813 3.72047L20.5643 7.38369H17.1813V3.72047ZM19.9716 26.9432H4.02801C2.97749 26.9432 2.12299 26.1153 2.12299 25.0975V3.9025C2.12299 2.88471 2.97749 2.05683 4.02801 2.05683H15.0587V9.44019H21.877V25.0975C21.8767 26.1153 21.0222 26.9432 19.9716 26.9432Z" fill="black"/>
</svg>
 