<svg width="100%" height="100%" viewBox="0 0 233 233" fill="none" xmlns="http://www.w3.org/2000/svg">
    <path d="M223.898 107.398H125.602V9.10156C125.602 4.07477 121.527 0 116.5 0C111.473 0 107.398 4.07477 107.398 9.10156V107.398H9.10156C4.07477 107.398 0 111.473 0 116.5C0 121.527 4.07477 125.602 9.10156 125.602H107.398V223.898C107.398 228.925 111.473 233 116.5 233C121.527 233 125.602 228.925 125.602 223.898V125.602H223.898C228.925 125.602 233 121.527 233 116.5C233 111.473 228.925 107.398 223.898 107.398Z" fill="black"/>
</svg>