<svg width="22" height="27" viewBox="0 0 27 33" fill="none" xmlns="http://www.w3.org/2000/svg">
<path d="M25.9748 14.0898C25.1174 13.396 23.9031 13.1739 22.8809 13.5239C22.607 13.6178 22.3526 13.7494 22.1247 13.9154C21.5435 14.3386 20.2532 15.609 19.2307 16.8663V7.17448C19.2307 6.35069 18.8886 5.54553 18.2921 4.9652C17.7 4.38915 16.9222 4.07846 16.106 4.09357C15.7354 4.10012 15.3803 4.17288 15.0522 4.30002V3.35337C15.0522 2.45682 14.6799 1.58041 14.0302 0.948464C13.3865 0.322061 12.5441 -0.015562 11.6531 0.000551261C9.8767 0.0310154 8.42639 1.46031 8.37323 3.20759C7.9884 3.03488 7.5705 2.93795 7.13785 2.92511C6.23541 2.89892 5.34162 3.2446 4.68641 3.87428C4.04469 4.49086 3.69114 5.30483 3.69114 6.16387L3.68885 7.08182C3.41186 6.99169 3.11656 6.94234 2.80956 6.94234C1.26031 6.94234 0 8.18986 0 9.72314L0.0010174 23.8117L0.00330655 23.8784C0.132771 25.7274 0.523708 27.3105 1.16569 28.584C1.76748 29.7779 2.6071 30.7391 3.66113 31.441C5.73536 32.8228 8.29769 33 10.2982 33C14.2266 33 17.7608 31.0667 19.5283 27.9528C19.7432 27.6099 20.3097 26.7282 20.9214 25.7772C21.5171 24.8507 22.0713 23.997 22.5599 23.2437C22.8285 22.8295 23.0729 22.4529 23.2851 22.1246C24.0753 20.9012 24.9175 19.7151 25.7884 18.599C26.1114 18.1851 26.2109 18.0728 26.2335 18.0482C26.6412 17.6078 26.8981 17.0688 26.9764 16.4889C27.0998 15.5793 26.7346 14.7047 25.9748 14.0898ZM25.0383 16.2321C25.0131 16.4174 24.9279 16.5932 24.7918 16.7402C24.7209 16.817 24.5939 16.963 24.2409 17.4157C23.3347 18.5769 22.4587 19.8103 21.6374 21.0817C21.4258 21.4093 21.1823 21.7844 20.9143 22.1976C20.4246 22.9524 19.8696 23.8081 19.2717 24.7377C18.6457 25.711 18.0663 26.6126 17.8542 26.9517L17.832 26.989C16.4135 29.5027 13.5269 31.0641 10.2984 31.0641C8.57569 31.0641 6.38828 30.9244 4.75305 29.8353C3.08451 28.7239 2.16987 26.7425 1.95672 23.7777L1.9557 9.72339C1.9557 9.25737 2.33876 8.8782 2.80956 8.8782C3.28316 8.8782 3.6685 9.25737 3.6685 9.72339V14.9957C3.6685 15.0113 3.67028 15.0264 3.67079 15.042C3.67181 15.0591 3.67181 15.0765 3.67359 15.0936C3.67512 15.109 3.67817 15.1239 3.68046 15.139C3.683 15.1558 3.68478 15.1729 3.68809 15.1898C3.69139 15.2049 3.69597 15.2198 3.69979 15.2346C3.70386 15.2505 3.70716 15.2669 3.71225 15.2825C3.71683 15.2976 3.72293 15.3122 3.72853 15.3268C3.73387 15.3416 3.7387 15.3567 3.74506 15.3713C3.75117 15.3859 3.75854 15.3998 3.76541 15.4139C3.77228 15.428 3.77864 15.4423 3.78601 15.4562C3.79339 15.4698 3.80229 15.4829 3.81043 15.4962C3.81857 15.5096 3.8262 15.5232 3.83485 15.536C3.84375 15.5488 3.85367 15.5609 3.86308 15.5733C3.87249 15.5858 3.88114 15.5987 3.89106 15.6105C3.90098 15.6224 3.91192 15.6332 3.92209 15.6445C3.93277 15.6561 3.94295 15.6684 3.95414 15.6795C3.96508 15.6901 3.97652 15.6996 3.98797 15.71C3.99967 15.7205 4.01111 15.7319 4.02358 15.7419C4.03528 15.7515 4.04774 15.7601 4.05995 15.7691C4.07292 15.7787 4.08538 15.7888 4.09861 15.7978C4.11107 15.8061 4.1243 15.8132 4.13702 15.8208C4.15101 15.8293 4.16474 15.8384 4.17924 15.8464C4.19246 15.8535 4.20645 15.8593 4.21993 15.8658C4.23469 15.8731 4.24944 15.8807 4.2647 15.8872C4.27869 15.8933 4.2937 15.8978 4.30794 15.9031C4.32346 15.9086 4.33872 15.9149 4.35449 15.9199C4.36949 15.9245 4.38526 15.9278 4.40052 15.9318C4.41655 15.9358 4.43206 15.9406 4.44809 15.9439C4.46437 15.9471 4.48064 15.9489 4.49692 15.9514C4.5132 15.9537 4.52897 15.957 4.54525 15.9587C4.56153 15.9602 4.57831 15.9605 4.59485 15.9612C4.61113 15.962 4.6274 15.9638 4.64394 15.9638C4.6447 15.9638 4.64572 15.9638 4.64648 15.9638C4.68031 15.9638 4.71363 15.962 4.74644 15.9587C4.76068 15.9575 4.77467 15.9544 4.78892 15.9524C4.80698 15.9499 4.82554 15.9479 4.84335 15.9441C4.86217 15.9403 4.88023 15.9351 4.89854 15.9303C4.91126 15.9267 4.92449 15.9242 4.93695 15.9205C4.9573 15.9142 4.97714 15.9064 4.99698 15.8988C5.00664 15.895 5.01707 15.892 5.02674 15.888C5.04657 15.8797 5.0654 15.8698 5.08447 15.8605C5.09363 15.856 5.10304 15.8522 5.1122 15.8474C5.13 15.8379 5.14679 15.8268 5.16383 15.8162C5.1735 15.8104 5.18342 15.8051 5.19257 15.7988C5.20834 15.7885 5.22335 15.7767 5.23836 15.7651C5.24827 15.7578 5.25845 15.751 5.26786 15.7432C5.28185 15.7321 5.29457 15.7195 5.30779 15.7075C5.31771 15.6986 5.32789 15.6901 5.33755 15.681C5.34976 15.6689 5.3607 15.6558 5.37214 15.6433C5.38155 15.6329 5.39173 15.6229 5.40063 15.6123C5.41081 15.5999 5.41996 15.5869 5.42963 15.574C5.43878 15.5619 5.44845 15.5504 5.45684 15.5378C5.46574 15.5249 5.47312 15.5116 5.48126 15.4982C5.4894 15.4849 5.4983 15.4718 5.50593 15.4582C5.51331 15.4446 5.51941 15.4305 5.52628 15.4167C5.53315 15.4023 5.54078 15.3882 5.54714 15.3736C5.55324 15.3595 5.55782 15.3447 5.56316 15.3303C5.56901 15.3152 5.57512 15.3003 5.5802 15.2847C5.58478 15.2699 5.58809 15.2548 5.5919 15.2397C5.59597 15.2238 5.60081 15.2082 5.60437 15.1921C5.60742 15.177 5.6092 15.1611 5.61149 15.1455C5.61429 15.1291 5.61734 15.1128 5.61912 15.0962C5.6209 15.0805 5.6209 15.0644 5.62166 15.0486C5.62268 15.0317 5.62446 15.0153 5.62446 14.9985L5.6471 6.16639C5.6471 5.83305 5.78979 5.51229 6.04872 5.26329C6.32698 4.99617 6.70342 4.84863 7.08011 4.86021C7.78568 4.88111 8.35975 5.48863 8.35975 6.21599L8.37094 14.9446C8.37094 14.9622 8.37272 14.9793 8.37374 14.9965C8.3745 15.0118 8.3745 15.0277 8.37603 15.0428C8.37781 15.0609 8.38137 15.0783 8.38417 15.0959C8.38646 15.1103 8.38798 15.1249 8.39078 15.139C8.39485 15.1581 8.40044 15.1767 8.40553 15.1954C8.40884 15.2074 8.41138 15.2198 8.41494 15.2316C8.4213 15.2518 8.42944 15.2714 8.43707 15.291C8.44089 15.3008 8.44368 15.3109 8.44775 15.3205C8.45691 15.3414 8.46734 15.3618 8.47777 15.3819C8.48184 15.3895 8.48489 15.3975 8.48896 15.4048C8.5004 15.4257 8.51338 15.4456 8.52609 15.4653C8.53016 15.4718 8.53372 15.4783 8.53805 15.4846C8.55153 15.5045 8.56628 15.5232 8.58103 15.5418C8.58561 15.5476 8.58968 15.5536 8.59426 15.5592C8.61079 15.5791 8.6286 15.5977 8.64666 15.6161C8.65047 15.6201 8.65352 15.6241 8.65734 15.6279C8.67591 15.6463 8.69575 15.6634 8.71584 15.6803C8.71966 15.6835 8.72296 15.6871 8.72678 15.6903C8.74687 15.7067 8.76773 15.7216 8.78884 15.7362C8.79342 15.7394 8.79749 15.743 8.80206 15.746C8.82343 15.7603 8.84581 15.7732 8.8682 15.7858C8.87303 15.7885 8.87761 15.7918 8.88269 15.7946C8.90609 15.8069 8.93026 15.818 8.95468 15.8288C8.95925 15.8308 8.96358 15.8333 8.96816 15.8354C8.99308 15.8457 9.01877 15.8545 9.04472 15.863C9.04929 15.8643 9.05336 15.8663 9.05794 15.8678C9.08363 15.8756 9.10983 15.8819 9.13603 15.8877C9.14137 15.8887 9.14646 15.8905 9.1518 15.8917C9.21538 15.9046 9.28126 15.9114 9.34866 15.9114C9.34917 15.9114 9.34968 15.9114 9.35019 15.9114C9.36723 15.9114 9.38402 15.9096 9.40081 15.9089C9.41709 15.9079 9.43336 15.9079 9.44939 15.9064C9.46719 15.9043 9.48423 15.9011 9.50178 15.8983C9.51654 15.896 9.5318 15.8945 9.54655 15.8915C9.5641 15.888 9.58114 15.8829 9.59844 15.8784C9.61243 15.8746 9.62642 15.8719 9.64015 15.8676C9.6577 15.8623 9.67449 15.8555 9.69153 15.8489C9.70425 15.8442 9.71747 15.8404 9.72994 15.8351C9.74749 15.8275 9.76453 15.8187 9.78157 15.8104C9.79276 15.8049 9.80446 15.8001 9.8154 15.7943C9.83219 15.7853 9.84821 15.7747 9.86449 15.7649C9.87492 15.7583 9.88585 15.7525 9.89603 15.7457C9.91154 15.7354 9.92604 15.7238 9.94079 15.7125C9.95097 15.7049 9.9614 15.6979 9.97132 15.6898C9.9853 15.6785 9.99853 15.6657 10.012 15.6533C10.0214 15.6448 10.0313 15.6365 10.0408 15.6274C10.0532 15.6148 10.0649 15.6012 10.0769 15.5881C10.0858 15.5783 10.0952 15.569 10.1038 15.5587C10.1145 15.5456 10.1242 15.5317 10.1341 15.5184C10.1427 15.5068 10.1519 15.4957 10.16 15.4841C10.1692 15.4708 10.1768 15.4567 10.1852 15.4428C10.1931 15.43 10.2018 15.4174 10.2089 15.4043C10.2165 15.3905 10.2226 15.3759 10.2295 15.3618C10.2363 15.3477 10.244 15.3341 10.2501 15.3195C10.2559 15.3056 10.2608 15.291 10.2659 15.2767C10.2717 15.2613 10.2781 15.2462 10.2829 15.2306C10.2875 15.2155 10.2908 15.2001 10.2948 15.1848C10.2989 15.1692 10.3038 15.1538 10.3068 15.138C10.3101 15.1221 10.3119 15.1057 10.3144 15.0899C10.3167 15.0738 10.32 15.0579 10.3216 15.0418C10.3233 15.0254 10.3233 15.0088 10.3241 14.9922C10.3251 14.9758 10.3266 14.96 10.3266 14.9433V3.30704C10.3266 2.56382 10.9371 1.949 11.6872 1.93616C12.0491 1.93112 12.393 2.06959 12.6598 2.32917C12.9376 2.59932 13.0968 2.97269 13.0968 3.35337V14.9967C13.0968 15.0143 13.0986 15.0315 13.0996 15.0488C13.1003 15.0642 13.1003 15.0798 13.1019 15.0952C13.1036 15.1123 13.1072 15.1289 13.1098 15.1458C13.1123 15.1611 13.1138 15.1765 13.1169 15.1913C13.1204 15.2082 13.1255 15.2246 13.1298 15.2412C13.1337 15.2555 13.1365 15.2699 13.141 15.284C13.1466 15.3019 13.1538 15.3192 13.1604 15.3366C13.1649 15.3487 13.1688 15.361 13.1738 15.3729C13.1817 15.391 13.1909 15.4084 13.1998 15.426C13.2049 15.4363 13.2095 15.4471 13.2151 15.4574C13.2247 15.4753 13.2359 15.4922 13.2468 15.5093C13.2527 15.5184 13.2578 15.5282 13.2641 15.5373C13.2758 15.5544 13.2888 15.5707 13.3018 15.5871C13.3081 15.5952 13.3137 15.6037 13.3204 15.6115C13.3346 15.6289 13.3504 15.645 13.3659 15.6614C13.372 15.6674 13.3773 15.6742 13.3834 15.6803C13.3995 15.6964 13.4168 15.711 13.434 15.7258C13.4404 15.7314 13.4463 15.7374 13.4529 15.7427C13.4722 15.7586 13.4925 15.7729 13.5129 15.7873C13.518 15.7908 13.5228 15.7948 13.5282 15.7986C13.55 15.8132 13.5729 15.8265 13.5961 15.8394C13.6004 15.8416 13.6042 15.8447 13.6085 15.8469C13.634 15.8605 13.6599 15.8726 13.6866 15.8842C13.6892 15.8852 13.6915 15.8867 13.694 15.8877C13.7217 15.8993 13.7502 15.9094 13.7792 15.9184C13.7807 15.9192 13.7823 15.9197 13.784 15.9202C13.8448 15.9391 13.9082 15.9519 13.9735 15.9587C13.974 15.9587 13.9743 15.9587 13.9748 15.9587C14.0076 15.962 14.0409 15.9638 14.0748 15.9638C14.075 15.9638 14.0753 15.9638 14.0758 15.9638C14.0931 15.9638 14.1101 15.962 14.1274 15.9612C14.1434 15.9602 14.1595 15.9602 14.1752 15.9587C14.1933 15.957 14.2108 15.9534 14.2286 15.9507C14.2431 15.9484 14.2579 15.9469 14.2724 15.9439C14.2915 15.9401 14.3098 15.9346 14.3283 15.9298C14.3408 15.9265 14.3538 15.924 14.366 15.9202C14.3858 15.9139 14.4049 15.9064 14.4242 15.8991C14.4347 15.895 14.4453 15.8917 14.4558 15.8875C14.4754 15.8792 14.4942 15.8696 14.5133 15.86C14.5224 15.8555 14.5321 15.8517 14.5412 15.8467C14.5598 15.8366 14.5776 15.8253 14.5957 15.814C14.6043 15.8087 14.6132 15.8039 14.6219 15.7981C14.6402 15.786 14.6572 15.7724 14.6745 15.7591C14.6819 15.7535 14.6898 15.7482 14.6972 15.7425C14.7142 15.7284 14.7302 15.713 14.7465 15.6979C14.7531 15.6918 14.7602 15.6863 14.7663 15.68C14.7821 15.6644 14.7969 15.6478 14.8114 15.6309C14.8175 15.6244 14.8238 15.6181 14.8297 15.6113C14.8437 15.5944 14.8564 15.5765 14.8691 15.5589C14.8744 15.5514 14.8805 15.5443 14.8859 15.5368C14.8978 15.5191 14.9085 15.5008 14.9192 15.4824C14.9243 15.4738 14.9301 15.4658 14.935 15.4569C14.9451 15.4383 14.9538 15.4189 14.9627 15.3995C14.967 15.3905 14.9721 15.3817 14.9759 15.3723C14.9841 15.3535 14.9907 15.3338 14.9975 15.3144C15.0011 15.3041 15.0057 15.294 15.009 15.2832C15.0146 15.2648 15.0189 15.2455 15.0237 15.2266C15.0265 15.2145 15.0304 15.2027 15.0329 15.1906C15.0367 15.1719 15.039 15.1526 15.0418 15.1337C15.0436 15.1206 15.0464 15.1077 15.0476 15.0944C15.0497 15.0768 15.0497 15.0586 15.0504 15.0405C15.0512 15.0257 15.0527 15.0111 15.0527 14.9957V7.00655C15.1163 6.4665 15.5795 6.03874 16.1403 6.02918C16.4285 6.02439 16.7068 6.13668 16.9217 6.3459C17.1466 6.56444 17.2755 6.86656 17.2755 7.17448V18.5995L17.276 18.6428C17.2814 19.27 17.6975 19.8 18.3112 19.9616C18.9209 20.122 19.5438 19.8685 19.8643 19.3251L19.8704 19.3143C20.637 17.9885 22.6861 15.9104 23.2843 15.4748C23.3535 15.4242 23.4331 15.3837 23.5208 15.3535C23.9105 15.2203 24.3991 15.3147 24.7374 15.5886C24.8966 15.7178 25.0785 15.9343 25.0383 16.2321Z" fill="black"/>
</svg>
